C:\Users\u0088756\Documents\documenten\software\SoftwareProjects\DC_TrackingSimulation\Data\Patient2\InputData\GRF_data.mot
nRows=20
nColumns=19

name C:\Users\u0088756\Documents\documenten\software\SoftwareProjects\DC_TrackingSimulation\Data\Patient2\InputData\GRF_data.mot
datacolumns 19
datarows 20
range 0.9600000000 0.9790000000
endheader
time	ground_force_vx	ground_force_vy	ground_force_vz	ground_force_px	ground_force_py	ground_force_pz	1_ground_force_vx	1_ground_force_vy	1_ground_force_vz	1_ground_force_px	1_ground_force_py	1_ground_force_pz	ground_torque_x	ground_torque_y	ground_torque_z	1_ground_torque_x	1_ground_torque_y	1_ground_torque_z
        0.9600000000	        0.0000000000	        0.0000000000	        0.0000000000	        0.9316233058	        0.0007564563	        0.0001602174	      -64.5153695205	      920.6287630194	      -81.1864473149	        1.3169170599	        0.0007564563	        0.0662143355	        0.0000000000	        0.0000000000	        0.0000000000	        0.0000000000	        4.8608341691	        0.0000000000	
        0.9610000000	        0.0000000000	        0.0000000000	        0.0000000000	        0.9325920926	        0.0007551772	        0.0001605469	      -63.8124481512	      918.3346411799	      -81.0003381633	        1.3171313695	        0.0007551772	        0.0662290622	        0.0000000000	        0.0000000000	        0.0000000000	        0.0000000000	        4.8643634226	        0.0000000000	
        0.9620000000	        0.0000000000	        0.0000000000	        0.0000000000	        0.9335608794	        0.0007538981	        0.0001608763	      -63.1144944548	      916.0331890817	      -80.8143270734	        1.3173465987	        0.0007538981	        0.0662441222	        0.0000000000	        0.0000000000	        0.0000000000	        0.0000000000	        4.8681989265	        0.0000000000	
        0.9630000000	        0.0000000000	        0.0000000000	        0.0000000000	        0.9345296662	        0.0007526189	        0.0001612058	      -62.4214670612	      913.7253854699	      -80.6285107277	        1.3175624522	        0.0007526189	        0.0662595501	        0.0000000000	        0.0000000000	        0.0000000000	        0.0000000000	        4.8723788064	        0.0000000000	
        0.9640000000	        0.0000000000	        0.0000000000	        0.0000000000	        0.9354984531	        0.0007513398	        0.0001615352	      -61.7333222724	      911.4122044488	      -80.4429838911	        1.3177786363	        0.0007513398	        0.0662753799	        0.0000000000	        0.0000000000	        0.0000000000	        0.0000000000	        4.8769398222	        0.0000000000	
        0.9650000000	        0.0000000000	        0.0000000000	        0.0000000000	        0.9364669116	        0.0007494515	        0.0001622606	      -61.0500142354	      909.0946150329	      -80.2578393977	        1.3179945314	        0.0007494515	        0.0662920412	        0.0000000000	        0.0000000000	        0.0000000000	        0.0000000000	        4.8819172985	        0.0000000000	
        0.9660000000	        0.0000000000	        0.0000000000	        0.0000000000	        0.9374353701	        0.0007475632	        0.0001629861	      -60.3714951106	      906.7735807016	      -80.0731681414	        1.3182101779	        0.0007475632	        0.0663091705	        0.0000000000	        0.0000000000	        0.0000000000	        0.0000000000	        4.8873450585	        0.0000000000	
        0.9670000000	        0.0000000000	        0.0000000000	        0.0000000000	        0.9384038286	        0.0007456749	        0.0001637115	      -59.6977152365	      904.4500589573	      -79.8890590676	        1.3184252915	        0.0007456749	        0.0663267999	        0.0000000000	        0.0000000000	        0.0000000000	        0.0000000000	        4.8932553596	        0.0000000000	
        0.9680000000	        0.0000000000	        0.0000000000	        0.0000000000	        0.9393722871	        0.0007437865	        0.0001644369	      -59.0286232918	      902.1250008898	      -79.7055991662	        1.3186395926	        0.0007437865	        0.0663449603	        0.0000000000	        0.0000000000	        0.0000000000	        0.0000000000	        4.8996788342	        0.0000000000	
        0.9690000000	        0.0000000000	        0.0000000000	        0.0000000000	        0.9403407457	        0.0007418982	        0.0001651624	      -58.3641664514	      899.7993507435	      -79.5228734665	        1.3188528066	        0.0007418982	        0.0663636820	        0.0000000000	        0.0000000000	        0.0000000000	        0.0000000000	        4.9066444335	        0.0000000000	
        0.9700000000	        0.0000000000	        0.0000000000	        0.0000000000	        0.9413087298	        0.0007394174	        0.0001664271	      -57.7042905404	      897.4740454903	      -79.3409650328	        1.3190641901	        0.0007394174	        0.0663835334	        0.0000000000	        0.0000000000	        0.0000000000	        0.0000000000	        4.9141793755	        0.0000000000	
        0.9710000000	        0.0000000000	        0.0000000000	        0.0000000000	        0.9422767140	        0.0007369367	        0.0001676919	      -57.0489401826	      895.1500144082	      -79.1599549600	        1.3192739547	        0.0007369367	        0.0664040035	        0.0000000000	        0.0000000000	        0.0000000000	        0.0000000000	        4.9223090985	        0.0000000000	
        0.9720000000	        0.0000000000	        0.0000000000	        0.0000000000	        0.9432446981	        0.0007344559	        0.0001689566	      -56.3980589452	      892.8281786634	      -78.9799223698	        1.3194818448	        0.0007344559	        0.0664251195	        0.0000000000	        0.0000000000	        0.0000000000	        0.0000000000	        4.9310572192	        0.0000000000	
        0.9730000000	        0.0000000000	        0.0000000000	        0.0000000000	        0.9442126824	        0.0007319752	        0.0001702213	      -55.7515894793	      890.5094508992	      -78.8009444064	        1.3196876120	        0.0007319752	        0.0664469075	        0.0000000000	        0.0000000000	        0.0000000000	        0.0000000000	        4.9404454961	        0.0000000000	
        0.9740000000	        0.0000000000	        0.0000000000	        0.0000000000	        0.9451806666	        0.0007294944	        0.0001714861	      -55.1094736559	      888.1947348299	      -78.6230962320	        1.3198910158	        0.0007294944	        0.0664693923	        0.0000000000	        0.0000000000	        0.0000000000	        0.0000000000	        4.9504937989	        0.0000000000	
        0.9750000000	        0.0000000000	        0.0000000000	        0.0000000000	        0.9461479674	        0.0007264720	        0.0001734311	      -54.4716526974	      885.8849248403	      -78.4464510208	        1.3200911412	        0.0007264720	        0.0664932780	        0.0000000000	        0.0000000000	        0.0000000000	        0.0000000000	        4.9612200844	        0.0000000000	
        0.9760000000	        0.0000000000	        0.0000000000	        0.0000000000	        0.9471152683	        0.0007234496	        0.0001753762	      -53.8380673048	      883.5809055913	      -78.2710799532	        1.3202884487	        0.0007234496	        0.0665179069	        0.0000000000	        0.0000000000	        0.0000000000	        0.0000000000	        4.9726403778	        0.0000000000	
        0.9770000000	        0.0000000000	        0.0000000000	        0.0000000000	        0.9480825691	        0.0007204272	        0.0001773212	      -53.2086577797	      881.2835516313	      -78.0970522073	        1.3204827250	        0.0007204272	        0.0665433001	        0.0000000000	        0.0000000000	        0.0000000000	        0.0000000000	        4.9847687609	        0.0000000000	
        0.9780000000	        0.0000000000	        0.0000000000	        0.0000000000	        0.9490498701	        0.0007174048	        0.0001792663	      -52.5833641426	      878.9937270151	      -77.9244349504	        1.3206737670	        0.0007174048	        0.0665694776	        0.0000000000	        0.0000000000	        0.0000000000	        0.0000000000	        4.9976173665	        0.0000000000	
        0.9790000000	        0.0000000000	        0.0000000000	        0.0000000000	        0.9500171710	        0.0007143824	        0.0001812113	      -51.9621262449	      876.7122849283	      -77.7532933288	        1.3208613815	        0.0007143824	        0.0665964580	        0.0000000000	        0.0000000000	        0.0000000000	        0.0000000000	        5.0111963796	        0.0000000000	
